<?xml version="1.0" encoding="UTF-8"?>
<svg id="Layer_1" xmlns="http://www.w3.org/2000/svg" viewBox="0 0 216.54 108.62">
  <defs>
    <style>
      .cls-1 {
        fill: #231f20;
      }

      .cls-2 {
        fill: #020202;
      }
    </style>
  </defs>
  <path class="cls-2" d="M143.45,50.48c6.99,0,12.4,3.39,12.4,6.31s-5.42,6.31-12.4,6.31-12.4-3.39-12.4-6.31,5.42-6.31,12.4-6.31M143.45,45.56c-9.57,0-17.33,5.03-17.33,11.23s7.76,11.23,17.33,11.23,17.33-5.03,17.33-11.23-7.76-11.23-17.33-11.23h0Z"/>
  <polygon class="cls-2" points="216.54 51.56 216.54 46.12 191.94 34.5 191.94 22.99 187.02 22.99 187.02 32.17 137.8 8.93 110.34 21.9 103.35 18.6 103.35 7.06 98.43 7.06 98.43 16.27 63.98 0 0 30.22 0 35.67 7.41 32.17 7.41 68.04 38.03 68.13 38.03 68.15 42.96 68.15 42.96 68.14 43.86 68.15 43.86 73.83 48.78 73.83 48.78 63.24 42.96 63.22 42.96 26.47 38.03 26.47 38.03 63.21 12.33 63.13 12.33 29.84 63.98 5.44 142.72 42.64 142.72 37.2 116.1 24.62 137.8 14.37 216.54 51.56"/>
  <path class="cls-2" d="M58.51,68.02c1.9-2.19,4.64-5.2,8.27-8.78h13.33v8.78h4.92v-20c0-1.27-.96-2.33-2.23-2.45-.33-.03-8.29-.67-18.14,8.86-6.85,6.62-10.96,11.56-12.57,13.59h6.41ZM80.12,50.75v3.58h-7.63c3.22-2.24,5.89-3.19,7.63-3.58Z"/>
  <path class="cls-2" d="M114,55.31l4.51-9.75h-5.42l-4.06,8.77h-12.65v-8.78h-4.92v22.48h4.92v-8.78h13.15c4.22,0,8.23,5.04,10.63,8.78h5.74c-2.41-4.33-6.55-10.38-11.89-12.72Z"/>
  <path d="M188.01,54.34h-.73s0,0,0,0c.18-.61.28-1.26.28-1.94h0c0-3.79-3.07-6.86-6.86-6.86h-14.73s0,0,0,0v22.51s0,0,0,0h29.61c1.7,0,3.08-1.38,3.08-3.08h0c0-5.88-4.76-10.64-10.64-10.64ZM170.89,50.47h9.77c.84,0,1.63.51,1.88,1.31.42,1.33-.56,2.56-1.82,2.56h-9.82s0,0,0,0v-3.87s0,0,0,0ZM192.88,63.13h-21.99s0,0,0,0v-3.87s0,0,0,0h9.81s.02,0,.02,0h7.29c2.19,0,4.1,1.24,5.06,3.06.16.48.08.74-.2.81Z"/>
  <g>
    <path class="cls-1" d="M1.55,98.53c-1.02-.95-1.52-2.4-1.52-4.36,0-.74.07-1.56.22-2.46.15-.9.37-1.81.67-2.71.71-2.18,1.72-3.92,3.03-5.22,1.61-1.59,3.52-2.38,5.73-2.38,1.44,0,2.5.34,3.19,1.03.54.55.81,1.3.81,2.26,0,.84-.19,1.49-.56,1.96-.35.43-.8.65-1.35.65-.4,0-.82-.14-1.26-.42.29-.76.44-1.47.44-2.12,0-.46-.08-.81-.25-1.08s-.42-.39-.74-.39c-.7,0-1.43.62-2.19,1.86-.69,1.1-1.26,2.49-1.72,4.19-.47,1.66-.7,3.16-.7,4.5,0,1.17.22,1.97.67,2.42.39.4,1.03.6,1.93.6,1.3,0,2.48-.35,3.56-1.05.46-.29.89-.64,1.31-1.04.42-.4.91-.91,1.47-1.53h1.23c-1.13,1.91-2.43,3.44-3.91,4.57-1.81,1.38-3.79,2.07-5.96,2.07-1.76,0-3.12-.44-4.08-1.33Z"/>
    <path class="cls-1" d="M32.78,98.6c-.62-.72-.93-1.65-.93-2.78,0-.54.07-1.16.2-1.87.13-.71.34-1.63.6-2.75.27-1.14.47-2.06.6-2.74.13-.68.2-1.28.2-1.78,0-1.23-.43-1.84-1.3-1.84-.61,0-1.17.32-1.68.96-.43.55-.81,1.33-1.12,2.35l-2.43,11.51h-5.17l2.63-12.38c.07-.28.1-.58.1-.89,0-.48-.08-.85-.23-1.1-.2-.32-.48-.47-.86-.47-.68,0-1.27.33-1.77.98-.44.56-.82,1.35-1.14,2.36l-2.43,11.51h-5.17l3.8-17.93h5.17l-.39,1.86c.7-.78,1.47-1.34,2.29-1.66.65-.25,1.35-.37,2.08-.37,1,0,1.8.23,2.4.7.67.53,1.09,1.32,1.28,2.38.77-1.19,1.66-2.03,2.66-2.52.71-.35,1.49-.53,2.33-.53,1.2,0,2.15.32,2.85.95.75.69,1.12,1.72,1.12,3.1,0,.78-.15,1.86-.44,3.24-.12.57-.26,1.15-.42,1.73-.29,1.12-.53,2.15-.72,3.1-.09.49-.14.89-.14,1.19,0,.48.11.85.32,1.11.22.26.59.39,1.11.39.71,0,1.31-.29,1.8-.88.37-.44.78-1.21,1.21-2.29h1.51c-.89,2.63-2.01,4.47-3.36,5.52-.96.75-2.06,1.12-3.31,1.12-1.48,0-2.58-.42-3.29-1.26Z"/>
    <path class="cls-1" d="M43.97,80.38h5.17l-.58,2.7c1.21-1.03,2.61-1.54,4.19-1.54,1.34,0,2.38.41,3.12,1.23.84.96,1.26,2.43,1.26,4.43s-.25,3.74-.74,5.43c-.62,2.16-1.52,3.84-2.7,5.03-1.45,1.47-3.25,2.21-5.39,2.21-.83,0-1.51-.13-2.05-.39-.41-.19-.74-.48-1-.89l-1.86,8.74-5.41,1.3,5.99-28.23ZM50.17,94.97c.65-.92,1.18-2.22,1.58-3.89.32-1.34.47-2.67.47-3.99,0-1.18-.22-2.02-.65-2.52-.28-.3-.67-.46-1.16-.46-.43,0-.87.15-1.31.46-.44.3-.83.74-1.16,1.31l-2.12,10.04c.08.23.24.43.46.59.23.16.53.24.9.24,1.16,0,2.15-.59,2.98-1.77Z"/>
    <path class="cls-1" d="M59.68,98.49c-1.09-.96-1.63-2.41-1.63-4.36,0-.74.08-1.55.23-2.44.15-.89.39-1.8.7-2.71.72-2.17,1.76-3.91,3.1-5.2,1.62-1.59,3.56-2.38,5.8-2.38,3.07,0,4.61,1.91,4.61,5.73v.04c.07.02.13.03.18.03h.21c.79,0,1.73-.22,2.82-.67.96-.4,1.86-.89,2.71-1.49l.32.98c-.7.74-1.6,1.36-2.71,1.87-1.1.51-2.32.88-3.65,1.1-.14,1.62-.46,3.1-.95,4.44-.49,1.34-1.12,2.48-1.89,3.44-.76.93-1.63,1.65-2.61,2.15-.98.5-2.02.75-3.12.75-1.77,0-3.15-.43-4.12-1.3ZM66.52,96c.44-.38.85-.91,1.23-1.59.39-.68.72-1.47,1-2.38.28-.91.49-1.89.63-2.93-.35-.09-.6-.27-.74-.52-.15-.26-.22-.58-.22-.98,0-.49.1-.9.3-1.23.2-.33.47-.57.82-.72-.05-.76-.17-1.3-.37-1.63-.1-.16-.24-.28-.39-.35-.16-.07-.36-.11-.6-.11-.81,0-1.59.61-2.36,1.82-.71,1.1-1.3,2.45-1.75,4.06-.44,1.58-.67,2.98-.67,4.2,0,.6.03,1.08.1,1.45.06.37.17.67.32.88.14.21.32.36.54.45s.51.13.88.13c.42,0,.85-.19,1.29-.57Z"/>
    <path class="cls-1" d="M75.15,98.84c-.75-.75-1.12-1.84-1.12-3.28,0-.68.09-1.46.28-2.35l2.43-11.51h5.17l-2.57,12.19c-.07.36-.1.7-.1,1.02,0,.98.36,1.47,1.07,1.47.65,0,1.24-.3,1.77-.89.42-.5.79-1.26,1.1-2.28l2.43-11.51h5.17l-2.57,12.19c-.11.35-.16.74-.16,1.16,0,.49.12.83.35,1.03.23.2.61.3,1.12.3.67,0,1.26-.3,1.79-.89.47-.53.84-1.28,1.12-2.28h1.51c-.64,1.82-1.42,3.26-2.33,4.33-.77.88-1.64,1.51-2.61,1.89-.71.28-1.47.42-2.26.42-1.03,0-1.85-.29-2.45-.86-.61-.57-.98-1.42-1.1-2.54-.82,1.31-1.74,2.24-2.77,2.8-.74.4-1.58.6-2.54.6-1.14,0-2.05-.34-2.71-1.02ZM80.18,79.14c-.81-.55-1.22-1.3-1.22-2.26,0-.78.22-1.42.65-1.9.43-.48,1.02-.73,1.75-.73s1.25.17,1.64.5c.39.33.59.81.59,1.45,0,.28-.04.53-.12.75-.15.42-.4.74-.74.96.28.09.76.14,1.44.14,1.14,0,2.16-.29,3.05-.88,1.06-.69,1.89-1.8,2.49-3.33h1.51c-.78,2.25-1.83,3.87-3.14,4.83-1.16.85-2.64,1.28-4.45,1.28-1.48,0-2.63-.27-3.44-.82Z"/>
    <path class="cls-1" d="M93.28,99.5c-.5-.24-.92-.57-1.26-.99-.32-.39-.55-.82-.72-1.3-.16-.48-.25-.97-.25-1.46,0-.84.2-1.5.59-1.98.39-.48.94-.72,1.64-.72.56,0,1.01.17,1.36.52.34.34.52.8.52,1.36,0,.51-.12.92-.36,1.22-.24.3-.53.45-.88.45-.08,0-.15,0-.19-.02-.02.35.06.64.25.88.25.33.63.49,1.16.49.61,0,1.11-.2,1.52-.59.41-.39.75-.95,1.02-1.69.25-.7.46-1.48.63-2.35.15-.83.33-1.73.53-2.7l1.89-8.9h5.03l.75,13.77,6.67-13.77h5.31l-1.91,8.9-.63,2.77c-.15.68-.23,1.18-.23,1.51,0,1,.48,1.51,1.44,1.51.36,0,.68-.06.95-.18.27-.12.52-.32.75-.59.21-.25.41-.55.6-.91.19-.36.43-.86.71-1.49h1.51c-1.51,4.43-3.73,6.64-6.67,6.64-1.38,0-2.44-.39-3.19-1.16-.34-.34-.6-.74-.77-1.2-.18-.46-.26-.94-.26-1.45,0-1.02.25-2.6.75-4.76l.56-2.56-5.31,10.91h-5.03l-.63-10.95-.47,2.26c-.34,1.69-.64,3.04-.91,4.05-.27,1-.58,1.85-.95,2.54-.41.77-.91,1.35-1.51,1.73-.6.39-1.36.58-2.27.58-.64,0-1.21-.12-1.72-.36Z"/>
    <path class="cls-1" d="M121.14,98.58c-.98-1-1.47-2.5-1.47-4.48,0-.84.08-1.73.25-2.66s.42-1.86.74-2.77c.75-2.06,1.77-3.71,3.07-4.97,1.49-1.44,3.22-2.15,5.17-2.15.97,0,1.7.17,2.18.5.48.33.73.77.73,1.32v.26l.39-1.91h5.17l-2.58,12.19c-.1.35-.16.74-.16,1.16,0,1.03.49,1.54,1.47,1.54.65,0,1.25-.33,1.79-1,.45-.56.83-1.35,1.12-2.38h1.51c-.64,1.82-1.42,3.26-2.33,4.33-.77.88-1.64,1.51-2.61,1.89-.71.28-1.47.42-2.26.42-1.02,0-1.82-.28-2.43-.83-.6-.55-.97-1.38-1.09-2.46-.68.96-1.39,1.7-2.14,2.24-.96.7-2.03,1.05-3.21,1.05-1.37,0-2.47-.43-3.31-1.28ZM127.63,96.18c.3-.14.59-.34.87-.6.63-.61,1.05-1.4,1.26-2.36l1.72-8.09c0-.12-.03-.25-.08-.41-.05-.16-.13-.31-.22-.45-.28-.34-.67-.51-1.17-.51s-.94.16-1.39.47c-.45.32-.87.75-1.27,1.31-.7,1.02-1.28,2.34-1.73,3.98-.21.72-.37,1.44-.47,2.15-.1.71-.16,1.35-.16,1.92,0,1.19.22,2,.67,2.42.15.16.32.27.51.32.19.05.4.07.63.07.27,0,.55-.07.85-.21Z"/>
    <path class="cls-1" d="M141.74,80.38h5.17l-.58,2.7c1.21-1.03,2.61-1.54,4.19-1.54,1.34,0,2.38.41,3.12,1.23.84.96,1.26,2.43,1.26,4.43s-.25,3.74-.74,5.43c-.62,2.16-1.52,3.84-2.7,5.03-1.45,1.47-3.25,2.21-5.39,2.21-.83,0-1.51-.13-2.05-.39-.41-.19-.74-.48-1-.89l-1.86,8.74-5.41,1.3,5.99-28.23ZM147.94,94.97c.65-.92,1.18-2.22,1.58-3.89.32-1.34.47-2.67.47-3.99,0-1.18-.22-2.02-.65-2.52-.28-.3-.67-.46-1.16-.46-.43,0-.87.15-1.31.46s-.83.74-1.16,1.31l-2.12,10.04c.08.23.24.43.46.59.23.16.53.24.9.24,1.16,0,2.15-.59,2.98-1.77Z"/>
    <path class="cls-1" d="M166.04,98.81c-.73-.7-1.09-1.68-1.09-2.93,0-.41.07-1.02.21-1.84.02-.19.05-.32.07-.39.02-.23.05-.39.07-.47.05-.23.07-.47.07-.72,0-1.14-.46-1.72-1.37-1.72-.3,0-.63.1-.98.32l-.58.42-.74.6-1.58,7.57h-5.17l3.84-17.93h5.17l-1.54,7.11c.77-.77,1.52-1.55,2.24-2.33l.26-.3c1.39-1.49,2.34-2.49,2.84-3,.83-.83,1.61-1.37,2.35-1.61.41-.13.83-.19,1.28-.19.81,0,1.42.22,1.84.66s.63,1.01.63,1.71c0,.74-.2,1.31-.59,1.72-.39.41-.95.61-1.67.61-.67,0-1.17-.2-1.52-.61-.32-.35-.46-.76-.44-1.23-.37.22-.73.48-1.06.78-.33.3-.7.65-1.09,1.06l-.35.39c-.16.16-.39.41-.67.74-.29.34-.65.72-1.07,1.14.41-.09.91-.14,1.51-.14,1.24,0,2.13.29,2.68.86.49.5.74,1.33.74,2.47,0,.39-.07.95-.21,1.7-.06.29-.11.6-.16.92-.05.32-.07.62-.07.9,0,.89.48,1.33,1.44,1.33.36,0,.67-.06.94-.18.26-.12.5-.32.73-.59.21-.25.41-.55.61-.93.2-.37.43-.86.7-1.47h1.51c-1.51,4.43-3.68,6.64-6.53,6.64-1.42,0-2.5-.35-3.23-1.05Z"/>
    <path class="cls-1" d="M175.35,98.53c-1.02-.95-1.52-2.4-1.52-4.36,0-.74.07-1.55.22-2.45.15-.9.37-1.8.66-2.7.33-1,.74-1.96,1.25-2.85.51-.9,1.1-1.69,1.78-2.38,1.56-1.59,3.49-2.38,5.78-2.38,1.46,0,2.52.35,3.19,1.05.51.55.77,1.34.77,2.38s-.22,1.97-.67,2.86c-.44.89-1.06,1.68-1.84,2.37-.78.68-1.67,1.22-2.66,1.62-.99.4-2.02.64-3.08.71-.06.61-.09,1.09-.09,1.44,0,1.17.22,1.97.67,2.42.39.4,1.03.6,1.93.6,1.3,0,2.48-.35,3.56-1.05.46-.29.89-.64,1.31-1.04s.91-.91,1.47-1.53h1.23c-1.13,1.91-2.43,3.44-3.91,4.57-1.81,1.38-3.79,2.07-5.95,2.07-1.76,0-3.12-.44-4.08-1.33ZM181.45,90.1c.63-.34,1.19-.78,1.68-1.33.49-.56.88-1.19,1.16-1.88s.42-1.4.42-2.13c0-.48-.07-.84-.2-1.09-.13-.25-.37-.38-.69-.38-.43,0-.87.21-1.3.63s-.86,1-1.27,1.73c-.37.69-.71,1.47-1.02,2.35-.3.88-.54,1.77-.72,2.68.67-.05,1.31-.24,1.94-.58Z"/>
    <path class="cls-1" d="M206.58,98.6c-.62-.72-.93-1.65-.93-2.78,0-.54.07-1.16.2-1.87.13-.71.34-1.63.6-2.75.27-1.14.47-2.06.6-2.74.13-.68.2-1.28.2-1.78,0-1.23-.43-1.84-1.3-1.84-.61,0-1.17.32-1.68.96-.43.55-.81,1.33-1.12,2.35l-2.43,11.51h-5.17l2.63-12.38c.07-.28.11-.58.11-.89,0-.48-.08-.85-.23-1.1-.2-.32-.48-.47-.86-.47-.68,0-1.27.33-1.77.98-.44.56-.82,1.35-1.14,2.36l-2.43,11.51h-5.17l3.8-17.93h5.17l-.39,1.86c.7-.78,1.47-1.34,2.29-1.66.65-.25,1.35-.37,2.08-.37,1,0,1.8.23,2.4.7.67.53,1.09,1.32,1.28,2.38.77-1.19,1.66-2.03,2.66-2.52.71-.35,1.49-.53,2.33-.53,1.2,0,2.15.32,2.85.95.75.69,1.12,1.72,1.12,3.1,0,.78-.15,1.86-.44,3.24-.12.57-.26,1.15-.42,1.73-.29,1.12-.53,2.15-.72,3.1-.09.49-.14.89-.14,1.19,0,.48.11.85.32,1.11s.59.39,1.11.39c.71,0,1.31-.29,1.8-.88.37-.44.78-1.21,1.21-2.29h1.51c-.89,2.63-2.01,4.47-3.36,5.52-.96.75-2.06,1.12-3.31,1.12-1.48,0-2.58-.42-3.29-1.26Z"/>
  </g>
</svg>