<?xml version="1.0" encoding="UTF-8"?>
<svg xmlns="http://www.w3.org/2000/svg" version="1.1" viewBox="0 0 100 100">
  <defs>
    <style>
      .cls-1 {
        fill: #020202;
      }

      .cls-2 {
        fill: #231f20;
      }
    </style>
  </defs>
  <!-- Generator: Adobe Illustrator 28.6.0, SVG Export Plug-In . SVG Version: 1.2.0 Build 709)  -->
  <g>
    <g id="Layer_1">
      <g>
        <path class="cls-1" d="M65.5,71.3c3.1,0,5.5,1.5,5.5,2.8s-2.4,2.8-5.5,2.8-5.5-1.5-5.5-2.8,2.4-2.8,5.5-2.8M65.5,69.1c-4.2,0-7.6,2.2-7.6,4.9s3.4,4.9,7.6,4.9,7.6-2.2,7.6-4.9-3.4-4.9-7.6-4.9h0Z"/>
        <polygon class="cls-1" points="97.7 71.8 97.7 69.4 86.9 64.3 86.9 59.2 84.7 59.2 84.7 63.2 63 53 50.9 58.7 47.8 57.3 47.8 52.2 45.7 52.2 45.7 56.2 30.5 49.1 2.3 62.4 2.3 64.8 5.6 63.2 5.6 79 19.1 79.1 19.1 79.1 21.2 79.1 21.2 79.1 21.6 79.1 21.6 81.6 23.8 81.6 23.8 76.9 21.2 76.9 21.2 60.7 19.1 60.7 19.1 76.9 7.7 76.9 7.7 62.2 30.5 51.5 65.2 67.9 65.2 65.5 53.5 59.9 63 55.4 97.7 71.8"/>
        <path class="cls-1" d="M28.1,79c.8-1,2-2.3,3.6-3.9h5.9v3.9h2.2v-8.8c0-.6-.4-1-1-1.1-.1,0-3.7-.3-8,3.9-3,2.9-4.8,5.1-5.5,6h2.8ZM37.6,71.4v1.6h-3.4c1.4-1,2.6-1.4,3.4-1.6Z"/>
        <path class="cls-1" d="M52.5,73.4l2-4.3h-2.4l-1.8,3.9h-5.6v-3.9h-2.2v9.9h2.2v-3.9h5.8c1.9,0,3.6,2.2,4.7,3.9h2.5c-1.1-1.9-2.9-4.6-5.2-5.6h0Z"/>
        <path d="M85.1,73h-.3c0-.3.1-.6.1-.9h0c0-1.7-1.4-3-3-3h-6.5v9.9h13c.7,0,1.4-.6,1.4-1.4h0c0-2.6-2.1-4.7-4.7-4.7h0ZM77.6,71.3h4.3c.4,0,.7.2.8.6.2.6-.2,1.1-.8,1.1h-4.3v-1.7h0ZM87.3,76.9h-9.7v-1.7h7.5c1,0,1.8.5,2.2,1.3,0,.2,0,.3,0,.4h0Z"/>
        <g>
          <path class="cls-2" d="M3,92.5c-.4-.4-.7-1.1-.7-1.9s0-.7,0-1.1c0-.4.2-.8.3-1.2.3-1,.8-1.7,1.3-2.3.7-.7,1.6-1,2.5-1s1.1.1,1.4.5c.2.2.4.6.4,1s0,.7-.2.9c-.2.2-.4.3-.6.3s-.4,0-.6-.2c.1-.3.2-.6.2-.9s0-.4-.1-.5-.2-.2-.3-.2c-.3,0-.6.3-1,.8-.3.5-.6,1.1-.8,1.8-.2.7-.3,1.4-.3,2s0,.9.3,1.1c.2.2.5.3.9.3.6,0,1.1-.2,1.6-.5.2-.1.4-.3.6-.5.2-.2.4-.4.6-.7h.5c-.5.8-1.1,1.5-1.7,2-.8.6-1.7.9-2.6.9s-1.4-.2-1.8-.6h0Z"/>
          <path class="cls-2" d="M16.7,92.5c-.3-.3-.4-.7-.4-1.2s0-.5,0-.8.1-.7.3-1.2c.1-.5.2-.9.3-1.2,0-.3,0-.6,0-.8,0-.5-.2-.8-.6-.8s-.5.1-.7.4c-.2.2-.4.6-.5,1l-1.1,5.1h-2.3l1.2-5.5c0-.1,0-.3,0-.4,0-.2,0-.4-.1-.5,0-.1-.2-.2-.4-.2-.3,0-.6.1-.8.4-.2.2-.4.6-.5,1l-1.1,5.1h-2.3l1.7-7.9h2.3l-.2.8c.3-.3.6-.6,1-.7.3-.1.6-.2.9-.2s.8.1,1.1.3c.3.2.5.6.6,1,.3-.5.7-.9,1.2-1.1.3-.2.7-.2,1-.2.5,0,.9.1,1.3.4.3.3.5.8.5,1.4s0,.8-.2,1.4c0,.3-.1.5-.2.8-.1.5-.2.9-.3,1.4,0,.2,0,.4,0,.5,0,.2,0,.4.1.5,0,.1.3.2.5.2s.6-.1.8-.4c.2-.2.3-.5.5-1h.7c-.4,1.2-.9,2-1.5,2.4-.4.3-.9.5-1.5.5s-1.1-.2-1.4-.6h0Z"/>
          <path class="cls-2" d="M21.7,84.5h2.3l-.3,1.2c.5-.5,1.2-.7,1.8-.7s1,.2,1.4.5c.4.4.6,1.1.6,2s-.1,1.6-.3,2.4c-.3,1-.7,1.7-1.2,2.2-.6.6-1.4,1-2.4,1s-.7,0-.9-.2c-.2,0-.3-.2-.4-.4l-.8,3.9-2.4.6,2.6-12.4h0ZM24.4,90.9c.3-.4.5-1,.7-1.7.1-.6.2-1.2.2-1.8s0-.9-.3-1.1c-.1-.1-.3-.2-.5-.2s-.4,0-.6.2c-.2.1-.4.3-.5.6l-.9,4.4c0,.1.1.2.2.3.1,0,.2.1.4.1.5,0,.9-.3,1.3-.8h0Z"/>
          <path class="cls-2" d="M28.6,92.5c-.5-.4-.7-1.1-.7-1.9s0-.7.1-1.1c0-.4.2-.8.3-1.2.3-1,.8-1.7,1.4-2.3.7-.7,1.6-1,2.6-1s2,.8,2,2.5h0s0,0,0,0h0c.3,0,.8,0,1.2-.3.4-.2.8-.4,1.2-.7v.4c-.2.3-.6.6-1.1.8-.5.2-1,.4-1.6.5,0,.7-.2,1.4-.4,2-.2.6-.5,1.1-.8,1.5-.3.4-.7.7-1.2.9s-.9.3-1.4.3c-.8,0-1.4-.2-1.8-.6h0ZM31.6,91.4c.2-.2.4-.4.5-.7.2-.3.3-.6.4-1,.1-.4.2-.8.3-1.3-.2,0-.3-.1-.3-.2,0-.1,0-.3,0-.4s0-.4.1-.5c0-.1.2-.3.4-.3,0-.3,0-.6-.2-.7,0,0-.1-.1-.2-.2,0,0-.2,0-.3,0-.4,0-.7.3-1,.8-.3.5-.6,1.1-.8,1.8-.2.7-.3,1.3-.3,1.9s0,.5,0,.6c0,.2,0,.3.1.4,0,0,.1.2.2.2s.2,0,.4,0,.4,0,.6-.3h0Z"/>
          <path class="cls-2" d="M35.4,92.6c-.3-.3-.5-.8-.5-1.4s0-.6.1-1l1.1-5.1h2.3l-1.1,5.4c0,.2,0,.3,0,.4,0,.4.2.6.5.6s.5-.1.8-.4c.2-.2.3-.6.5-1l1.1-5.1h2.3l-1.1,5.4c0,.2,0,.3,0,.5s0,.4.2.5c.1,0,.3.1.5.1s.6-.1.8-.4c.2-.2.4-.6.5-1h.7c-.3.8-.6,1.4-1,1.9-.3.4-.7.7-1.2.8-.3.1-.6.2-1,.2s-.8-.1-1.1-.4c-.3-.3-.4-.6-.5-1.1-.4.6-.8,1-1.2,1.2-.3.2-.7.3-1.1.3s-.9-.1-1.2-.4h0ZM37.6,83.9c-.4-.2-.5-.6-.5-1s0-.6.3-.8.4-.3.8-.3.6,0,.7.2.3.4.3.6,0,.2,0,.3c0,.2-.2.3-.3.4.1,0,.3,0,.6,0,.5,0,1-.1,1.3-.4.5-.3.8-.8,1.1-1.5h.7c-.3,1-.8,1.7-1.4,2.1-.5.4-1.2.6-2,.6s-1.2-.1-1.5-.4h0Z"/>
          <path class="cls-2" d="M43.4,92.9c-.2-.1-.4-.3-.6-.4-.1-.2-.2-.4-.3-.6,0-.2-.1-.4-.1-.6,0-.4,0-.7.3-.9s.4-.3.7-.3.4,0,.6.2.2.4.2.6,0,.4-.2.5-.2.2-.4.2,0,0,0,0c0,.2,0,.3.1.4.1.1.3.2.5.2s.5,0,.7-.3c.2-.2.3-.4.4-.7.1-.3.2-.7.3-1,0-.4.1-.8.2-1.2l.8-3.9h2.2l.3,6.1,2.9-6.1h2.3l-.8,3.9-.3,1.2c0,.3-.1.5-.1.7,0,.4.2.7.6.7s.3,0,.4,0,.2-.1.3-.3c0-.1.2-.2.3-.4,0-.2.2-.4.3-.7h.7c-.7,2-1.6,2.9-2.9,2.9s-1.1-.2-1.4-.5c-.1-.1-.3-.3-.3-.5,0-.2-.1-.4-.1-.6,0-.4.1-1.1.3-2.1l.2-1.1-2.3,4.8h-2.2l-.3-4.8-.2,1c-.1.7-.3,1.3-.4,1.8-.1.4-.3.8-.4,1.1-.2.3-.4.6-.7.8-.3.2-.6.3-1,.3s-.5,0-.8-.2h0Z"/>
          <path class="cls-2" d="M55.7,92.5c-.4-.4-.6-1.1-.6-2s0-.8.1-1.2.2-.8.3-1.2c.3-.9.8-1.6,1.4-2.2.7-.6,1.4-.9,2.3-.9s.7,0,1,.2.3.3.3.6h0c0,.1.2-.7.2-.7h2.3l-1.1,5.4c0,.2,0,.3,0,.5,0,.5.2.7.6.7s.6-.1.8-.4c.2-.2.4-.6.5-1h.7c-.3.8-.6,1.4-1,1.9-.3.4-.7.7-1.2.8-.3.1-.6.2-1,.2s-.8-.1-1.1-.4c-.3-.2-.4-.6-.5-1.1-.3.4-.6.7-.9,1-.4.3-.9.5-1.4.5s-1.1-.2-1.5-.6h0ZM58.5,91.4c.1,0,.3-.1.4-.3.3-.3.5-.6.6-1l.8-3.6c0,0,0-.1,0-.2s0-.1,0-.2c-.1-.1-.3-.2-.5-.2s-.4,0-.6.2c-.2.1-.4.3-.6.6-.3.4-.6,1-.8,1.8,0,.3-.2.6-.2.9s0,.6,0,.8c0,.5,0,.9.3,1.1,0,0,.1.1.2.1s.2,0,.3,0,.2,0,.4,0h0Z"/>
          <path class="cls-2" d="M64.7,84.5h2.3l-.3,1.2c.5-.5,1.2-.7,1.8-.7s1,.2,1.4.5c.4.4.6,1.1.6,2s-.1,1.6-.3,2.4c-.3,1-.7,1.7-1.2,2.2-.6.6-1.4,1-2.4,1s-.7,0-.9-.2c-.2,0-.3-.2-.4-.4l-.8,3.9-2.4.6,2.6-12.4h0ZM67.5,90.9c.3-.4.5-1,.7-1.7.1-.6.2-1.2.2-1.8s0-.9-.3-1.1c-.1-.1-.3-.2-.5-.2s-.4,0-.6.2-.4.3-.5.6l-.9,4.4c0,.1.1.2.2.3.1,0,.2.1.4.1.5,0,.9-.3,1.3-.8h0Z"/>
          <path class="cls-2" d="M75.5,92.6c-.3-.3-.5-.7-.5-1.3s0-.4,0-.8c0,0,0-.1,0-.2,0-.1,0-.2,0-.2,0-.1,0-.2,0-.3,0-.5-.2-.8-.6-.8s-.3,0-.4.1l-.3.2-.3.3-.7,3.3h-2.3l1.7-7.9h2.3l-.7,3.1c.3-.3.7-.7,1-1h.1c.6-.8,1-1.2,1.3-1.5.4-.4.7-.6,1-.7.2,0,.4,0,.6,0,.4,0,.6,0,.8.3s.3.4.3.8,0,.6-.3.8-.4.3-.7.3-.5,0-.7-.3c-.1-.2-.2-.3-.2-.5-.2,0-.3.2-.5.3-.1.1-.3.3-.5.5l-.2.2c0,0-.2.2-.3.3-.1.1-.3.3-.5.5.2,0,.4,0,.7,0,.5,0,.9.1,1.2.4.2.2.3.6.3,1.1s0,.4,0,.7c0,.1,0,.3,0,.4s0,.3,0,.4c0,.4.2.6.6.6s.3,0,.4,0c.1,0,.2-.1.3-.3,0-.1.2-.2.3-.4,0-.2.2-.4.3-.6h.7c-.7,2-1.6,2.9-2.9,2.9s-1.1-.2-1.4-.5h0Z"/>
          <path class="cls-2" d="M79.6,92.5c-.4-.4-.7-1.1-.7-1.9s0-.7,0-1.1c0-.4.2-.8.3-1.2.1-.4.3-.9.6-1.3.2-.4.5-.7.8-1,.7-.7,1.5-1,2.5-1s1.1.2,1.4.5c.2.2.3.6.3,1s0,.9-.3,1.3c-.2.4-.5.7-.8,1-.3.3-.7.5-1.2.7s-.9.3-1.4.3c0,.3,0,.5,0,.6,0,.5,0,.9.3,1.1.2.2.5.3.9.3.6,0,1.1-.2,1.6-.5.2-.1.4-.3.6-.5s.4-.4.6-.7h.5c-.5.8-1.1,1.5-1.7,2-.8.6-1.7.9-2.6.9s-1.4-.2-1.8-.6h0ZM82.2,88.8c.3-.1.5-.3.7-.6.2-.2.4-.5.5-.8s.2-.6.2-.9,0-.4,0-.5c0-.1-.2-.2-.3-.2s-.4,0-.6.3-.4.4-.6.8c-.2.3-.3.6-.4,1-.1.4-.2.8-.3,1.2.3,0,.6-.1.9-.3h0Z"/>
          <path class="cls-2" d="M93.3,92.5c-.3-.3-.4-.7-.4-1.2s0-.5,0-.8c0-.3.1-.7.3-1.2.1-.5.2-.9.3-1.2s0-.6,0-.8c0-.5-.2-.8-.6-.8s-.5.1-.7.4c-.2.2-.4.6-.5,1l-1.1,5.1h-2.3l1.2-5.5c0-.1,0-.3,0-.4,0-.2,0-.4-.1-.5,0-.1-.2-.2-.4-.2-.3,0-.6.1-.8.4-.2.2-.4.6-.5,1l-1.1,5.1h-2.3l1.7-7.9h2.3l-.2.8c.3-.3.6-.6,1-.7.3-.1.6-.2.9-.2s.8.1,1.1.3c.3.2.5.6.6,1,.3-.5.7-.9,1.2-1.1.3-.2.7-.2,1-.2.5,0,.9.1,1.3.4.3.3.5.8.5,1.4s0,.8-.2,1.4c0,.3-.1.5-.2.8-.1.5-.2.9-.3,1.4,0,.2,0,.4,0,.5,0,.2,0,.4.1.5s.3.2.5.2.6-.1.8-.4c.2-.2.3-.5.5-1h.7c-.4,1.2-.9,2-1.5,2.4-.4.3-.9.5-1.5.5s-1.1-.2-1.4-.6h0Z"/>
        </g>
      </g>
    </g>
  </g>
</svg>